<svg xmlns="http://www.w3.org/2000/svg" width="600" height="400" viewBox="0 0 600 400"><rect width="100%" height="100%" fill="#059669"/><path fill="#ffffff" d="M140.435 207.69h20.93l-8.01-21.89q-.59-1.45-1.23-3.46-.64-2-1.27-4.32-.6 2.32-1.23 4.35-.64 2.02-1.23 3.52zm16.7-40.95 25.84 65.79h-9.46q-1.6 0-2.6-.8-1-.79-1.5-1.98l-4.91-13.42h-27.26l-4.91 13.42q-.37 1.05-1.41 1.92-1.05.86-2.6.86h-9.55l25.89-65.79zm39.76 37.08h21.21q0-2.18-.62-4.12-.61-1.93-1.84-3.39-1.23-1.45-3.12-2.3-1.89-.84-4.39-.84-4.87 0-7.67 2.78-2.79 2.77-3.57 7.87m28.67 6.78h-28.9q.28 3.59 1.28 6.21t2.64 4.32q1.64 1.71 3.89 2.55t4.98.84 4.71-.63q1.98-.64 3.46-1.42 1.48-.77 2.59-1.41 1.12-.63 2.16-.63 1.41 0 2.1 1.04l3.23 4.1q-1.87 2.18-4.19 3.66t-4.85 2.37q-2.52.88-5.14 1.25-2.61.36-5.07.36-4.87 0-9.06-1.61-4.18-1.62-7.28-4.78-3.09-3.16-4.86-7.83-1.78-4.66-1.78-10.8 0-4.78 1.55-8.99t4.43-7.32q2.89-3.12 7.06-4.94 4.16-1.82 9.39-1.82 4.42 0 8.15 1.41t6.41 4.12q2.69 2.7 4.21 6.64 1.53 3.94 1.53 8.99 0 2.54-.55 3.43t-2.09.89m20.97-21.93.69 5.28q2.18-4.19 5.18-6.58 3.01-2.39 7.1-2.39 3.23 0 5.19 1.41l-.73 8.42q-.23.82-.66 1.16t-1.16.34q-.68 0-2.03-.23-1.34-.22-2.61-.22-1.87 0-3.32.54-1.46.55-2.62 1.57-1.16 1.03-2.05 2.48-.88 1.46-1.66 3.32v28.76h-11.24v-46.68h6.6q1.73 0 2.41.61.69.62.91 2.21m44.68-3.55q5.19 0 9.44 1.68 4.26 1.69 7.28 4.78 3.03 3.09 4.67 7.55t1.64 9.97q0 5.55-1.64 10.01t-4.67 7.6q-3.02 3.14-7.28 4.82-4.25 1.68-9.44 1.68-5.23 0-9.51-1.68-4.27-1.68-7.3-4.82-3.02-3.14-4.69-7.6-1.66-4.46-1.66-10.01 0-5.51 1.66-9.97 1.67-4.46 4.69-7.55 3.03-3.09 7.3-4.78 4.28-1.68 9.51-1.68m0 39.45q5.83 0 8.63-3.92 2.79-3.91 2.79-11.46t-2.79-11.51q-2.8-3.96-8.63-3.96-5.91 0-8.76 3.98-2.84 3.98-2.84 11.49t2.84 11.44q2.85 3.94 8.76 3.94m78.08-57.83h10.79v65.79h-6.28q-1.46 0-2.44-.48t-1.89-1.61l-34.35-43.86q.27 3 .27 5.55v40.4h-10.78v-65.79h6.42q.77 0 1.34.07.57.06 1 .27.43.2.84.59t.91 1.02l34.49 44.05q-.14-1.59-.23-3.14t-.09-2.87zm48.32 53.73v-7.87q-4.87.23-8.19.84-3.32.62-5.32 1.57-2 .96-2.87 2.23-.86 1.28-.86 2.78 0 2.96 1.75 4.23t4.57 1.27q3.46 0 5.99-1.25 2.52-1.25 4.93-3.8m-23.75-24.52-2-3.6q8.05-7.37 19.38-7.37 4.1 0 7.33 1.34 3.23 1.35 5.46 3.74 2.23 2.38 3.39 5.71 1.16 3.32 1.16 7.28v29.48h-5.1q-1.59 0-2.45-.48-.87-.48-1.37-1.93l-1-3.37q-1.78 1.59-3.46 2.8t-3.5 2.02q-1.82.82-3.89 1.26-2.07.43-4.58.43-2.95 0-5.46-.8-2.5-.79-4.32-2.39-1.82-1.59-2.82-3.96-1-2.36-1-5.5 0-1.78.59-3.53t1.94-3.34q1.34-1.59 3.48-3 2.13-1.41 5.25-2.46t7.26-1.71 9.46-.79v-2.73q0-4.69-2-6.94t-5.78-2.25q-2.73 0-4.53.63-1.79.64-3.16 1.44-1.36.79-2.48 1.43-1.11.64-2.48.64-1.18 0-2-.62-.82-.61-1.32-1.43m78.49-10.1h8.87l-18.52 46.68h-10.19l-18.52-46.68h9.28q1.28 0 2.12.59t1.12 1.5l9 24.93q.73 2.19 1.28 4.28.54 2.09.95 4.19.46-2.1 1-4.19.55-2.09 1.32-4.28l9.2-24.93q.31-.91 1.13-1.5t1.96-.59"/></svg>