<svg xmlns="http://www.w3.org/2000/svg" width="600" height="400" viewBox="0 0 600 400"><rect width="100%" height="100%" fill="#eab308"/><path fill="#ffffff" d="M132.635 221.255h11.02q3.03 0 5.1-.72 2.06-.73 3.3-1.95 1.23-1.21 1.78-2.83t.55-3.45q0-1.9-.61-3.42t-1.9-2.59q-1.3-1.07-3.34-1.64-2.05-.57-4.93-.57h-10.97zm9.27-41.63h-9.27v16.93h8.67q5.59 0 8.44-2.02 2.86-2.03 2.86-6.44 0-4.58-2.6-6.53-2.59-1.94-8.1-1.94m-20.17-8.42h20.17q5.76 0 9.85 1.09t6.7 3.12q2.61 2.02 3.83 4.9 1.21 2.87 1.21 6.48 0 2.06-.61 3.95-.6 1.88-1.88 3.52t-3.24 2.98q-1.96 1.33-4.68 2.27 12.07 2.71 12.07 13.04 0 3.72-1.42 6.88-1.41 3.16-4.13 5.45-2.71 2.29-6.68 3.58-3.97 1.3-9.07 1.3h-22.12zm73.71 47.83v-7.01q-4.33.2-7.28.75-2.96.55-4.74 1.4-1.79.85-2.55 1.98-.77 1.14-.77 2.47 0 2.63 1.55 3.77 1.56 1.13 4.07 1.13 3.08 0 5.33-1.11t4.39-3.38m-21.14-21.83-1.78-3.2q7.17-6.56 17.26-6.56 3.64 0 6.52 1.19 2.87 1.2 4.86 3.32 1.98 2.13 3.01 5.09 1.04 2.95 1.04 6.48v26.24h-4.54q-1.42 0-2.19-.43-.77-.42-1.21-1.72l-.89-2.99q-1.58 1.41-3.08 2.49-1.5 1.07-3.12 1.8t-3.46 1.11q-1.85.39-4.07.39-2.64 0-4.86-.71-2.23-.71-3.85-2.13-1.62-1.41-2.51-3.52t-.89-4.9q0-1.58.52-3.14.53-1.56 1.73-2.98 1.19-1.41 3.09-2.67 1.91-1.26 4.68-2.19 2.78-.93 6.46-1.52 3.69-.58 8.42-.7v-2.43q0-4.18-1.78-6.18-1.78-2.01-5.14-2.01-2.43 0-4.03.57t-2.81 1.28q-1.22.71-2.21 1.27-.99.57-2.21.57-1.05 0-1.78-.55-.73-.54-1.18-1.27m67.92-4.5-2.27 3.61q-.4.65-.85.91-.44.26-1.13.26-.73 0-1.56-.4-.83-.41-1.92-.91-1.1-.51-2.49-.92-1.4-.4-3.3-.4-2.96 0-4.64 1.25-1.68 1.26-1.68 3.28 0 1.34.87 2.25t2.31 1.6q1.43.69 3.26 1.24 1.82.54 3.7 1.19 1.89.65 3.71 1.48t3.26 2.11q1.44 1.27 2.31 3.05.87 1.79.87 4.3 0 2.99-1.08 5.53-1.07 2.53-3.17 4.37-2.11 1.84-5.21 2.88-3.1 1.03-7.15 1.03-2.14 0-4.19-.39-2.04-.38-3.93-1.07-1.88-.69-3.48-1.62t-2.81-2.03l2.3-3.8q.45-.69 1.06-1.05.6-.37 1.54-.37.93 0 1.76.53.83.52 1.92 1.13t2.57 1.14q1.48.52 3.75.52 1.78 0 3.06-.42 1.27-.43 2.1-1.12t1.22-1.6q.38-.91.38-1.88 0-1.46-.87-2.39t-2.31-1.62q-1.43-.69-3.28-1.24-1.84-.54-3.76-1.19-1.93-.65-3.77-1.52t-3.28-2.21q-1.44-1.33-2.31-3.28-.87-1.94-.87-4.69 0-2.56 1.01-4.86 1.02-2.31 2.98-4.03 1.96-1.73 4.9-2.76t6.78-1.03q4.3 0 7.82 1.42 3.52 1.41 5.87 3.72m15.88 11.5h18.87q0-1.94-.55-3.66-.54-1.72-1.64-3.02-1.09-1.29-2.77-2.04t-3.91-.75q-4.33 0-6.82 2.47t-3.18 7m25.51 6.04h-25.71q.24 3.2 1.13 5.53t2.35 3.84q1.46 1.52 3.46 2.27 2.01.75 4.44.75t4.19-.57q1.76-.56 3.08-1.25 1.31-.69 2.3-1.26 1-.56 1.93-.56 1.25 0 1.86.93l2.88 3.64q-1.66 1.95-3.73 3.26-2.06 1.32-4.31 2.11t-4.58 1.11q-2.33.33-4.51.33-4.34 0-8.06-1.44-3.73-1.44-6.48-4.25-2.76-2.82-4.34-6.97t-1.58-9.62q0-4.25 1.38-8 1.38-3.74 3.95-6.52 2.57-2.77 6.28-4.39 3.7-1.62 8.36-1.62 3.93 0 7.25 1.25 3.32 1.26 5.71 3.67t3.75 5.91q1.35 3.51 1.35 8 0 2.27-.48 3.06-.49.79-1.87.79m40.26-9.84h19.44v23.69q-4.45 3.28-9.5 4.8-5.04 1.52-10.79 1.52-7.17 0-12.98-2.23t-9.92-6.2-6.34-9.47q-2.23-5.51-2.23-12.03 0-6.6 2.15-12.11 2.14-5.51 6.09-9.48t9.58-6.15q5.63-2.19 12.64-2.19 3.56 0 6.66.57 3.1.56 5.75 1.56 2.65.99 4.84 2.4 2.19 1.42 4.01 3.12l-3.12 4.94q-.73 1.18-1.9 1.44-1.18.27-2.55-.59-1.34-.76-2.68-1.53-1.33-.77-2.97-1.34t-3.69-.93q-2.04-.37-4.72-.37-4.33 0-7.83 1.46-3.51 1.46-5.98 4.17-2.47 2.72-3.8 6.52-1.34 3.81-1.34 8.51 0 5.02 1.44 8.97 1.43 3.95 4.05 6.68 2.61 2.74 6.29 4.17 3.69 1.44 8.23 1.44 3.24 0 5.79-.69t4.98-1.86v-10.61h-7.37q-1.05 0-1.64-.59t-.59-1.44zm28.51-30.82h10.01v60.18h-10.01zm38.4 17.98q4.61 0 8.4 1.5t6.48 4.25 4.15 6.72 1.46 8.87q0 4.94-1.46 8.91t-4.15 6.77q-2.69 2.79-6.48 4.29t-8.4 1.5q-4.66 0-8.47-1.5-3.8-1.5-6.5-4.29-2.69-2.8-4.17-6.77t-1.48-8.91q0-4.9 1.48-8.87t4.17-6.72q2.7-2.75 6.5-4.25 3.81-1.5 8.47-1.5m0 35.11q5.18 0 7.67-3.48t2.49-10.21q0-6.72-2.49-10.24-2.49-3.53-7.67-3.53-5.27 0-7.8 3.55-2.53 3.54-2.53 10.22 0 6.69 2.53 10.19t7.8 3.5m79.86-34.46h7.62l-13.21 41.55h-8.02q-1.37 0-1.9-1.78l-7.45-24.02q-.37-1.21-.67-2.41-.3-1.19-.51-2.41-.24 1.22-.54 2.45-.31 1.24-.67 2.45l-7.57 23.94q-.49 1.78-2.15 1.78h-7.7l-13.16-41.55h7.98q1.09 0 1.86.52.77.53 1.02 1.34l5.95 22.19q.45 1.83.79 3.57t.59 3.48q.44-1.74.95-3.48.5-1.74 1.07-3.57l6.89-22.27q.24-.81.95-1.34.71-.52 1.72-.52h4.41q1.06 0 1.81.52.75.53.99 1.34l6.68 22.27q.53 1.83.99 3.59.47 1.76.91 3.5.53-3.44 1.5-7.09l6.12-22.19q.28-.81 1.01-1.34.73-.52 1.74-.52"/></svg>