<svg xmlns="http://www.w3.org/2000/svg" width="600" height="400" viewBox="0 0 600 400"><rect width="100%" height="100%" fill="#8b5cf6"/><path fill="#ffffff" d="M174.12 211.37q1.06 0 1.89.83l5.14 5.57q-4.27 5.29-10.5 8.1-6.23 2.82-14.96 2.82-7.81 0-14.04-2.67-6.24-2.67-10.65-7.42-4.41-4.76-6.76-11.35-2.36-6.6-2.36-14.41 0-7.9 2.53-14.47 2.52-6.57 7.1-11.33 4.58-4.75 10.94-7.39 6.35-2.65 14.06-2.65 7.67 0 13.61 2.52 5.94 2.53 10.11 6.6l-4.37 6.06q-.38.59-.99 1.02-.61.44-1.67.44-.73 0-1.51-.41-.77-.42-1.69-1.02-.93-.61-2.14-1.34-1.21-.72-2.81-1.33t-3.71-1.02-4.88-.41q-4.7 0-8.6 1.67-3.91 1.68-6.72 4.85-2.81 3.18-4.37 7.76-1.55 4.59-1.55 10.45 0 5.92 1.67 10.53 1.68 4.61 4.54 7.76t6.74 4.82q3.88 1.68 8.34 1.68 2.67 0 4.83-.29t3.98-.92q1.81-.64 3.44-1.63 1.62-.99 3.22-2.45.49-.43 1.02-.7.54-.27 1.12-.27m40.4 3.69v-8.39q-5.19.24-8.73.89-3.54.66-5.68 1.68-2.13 1.02-3.05 2.37-.92 1.36-.92 2.96 0 3.15 1.86 4.51 1.87 1.36 4.88 1.36 3.68 0 6.38-1.33 2.69-1.34 5.26-4.05m-25.32-26.14-2.13-3.84q8.58-7.85 20.66-7.85 4.36 0 7.81 1.43 3.44 1.43 5.82 3.98 2.37 2.54 3.61 6.08t1.24 7.76v31.43h-5.44q-1.69 0-2.61-.51-.93-.51-1.46-2.06l-1.07-3.59q-1.89 1.7-3.68 2.98-1.8 1.29-3.74 2.16t-4.14 1.34q-2.21.46-4.88.46-3.15 0-5.82-.85t-4.6-2.55q-1.94-1.7-3.01-4.22t-1.07-5.87q0-1.89.63-3.76.63-1.86 2.06-3.56t3.71-3.2 5.6-2.62q3.33-1.12 7.74-1.82t10.09-.85v-2.91q0-4.99-2.14-7.39-2.13-2.41-6.16-2.41-2.91 0-4.82.68-1.92.68-3.37 1.53-1.46.85-2.64 1.53-1.19.68-2.65.68-1.26 0-2.13-.66-.87-.65-1.41-1.52m58.83-7.76.73 5.62q2.33-4.46 5.53-7.01 3.2-2.54 7.56-2.54 3.45 0 5.53 1.5l-.77 8.97q-.25.88-.71 1.24t-1.23.36q-.73 0-2.16-.24t-2.79-.24q-1.99 0-3.54.58t-2.79 1.67q-1.24 1.1-2.18 2.65-.95 1.55-1.77 3.54v30.65h-11.98v-49.76h7.03q1.84 0 2.57.65.73.66.97 2.36m56.84 32.01v-22.31q-2.03-2.48-4.43-3.5-2.4-1.01-5.17-1.01-2.72 0-4.9 1.01-2.18 1.02-3.73 3.08t-2.38 5.24q-.82 3.18-.82 7.5 0 4.36.7 7.39t2.01 4.95q1.31 1.91 3.2 2.76 1.9.85 4.22.85 3.74 0 6.36-1.55t4.94-4.41m0-57.33h11.98v72.07h-7.32q-2.38 0-3.01-2.18l-1.02-4.8q-3 3.44-6.91 5.57-3.9 2.14-9.09 2.14-4.07 0-7.47-1.7-3.39-1.7-5.84-4.92-2.45-3.23-3.79-7.98-1.33-4.75-1.33-10.86 0-5.53 1.5-10.29 1.51-4.75 4.32-8.24t6.74-5.46q3.93-1.96 8.83-1.96 4.17 0 7.13 1.31t5.28 3.54zm69.94 12.32h-31.14v20.76h26.29v10.42h-26.29v28.57h-13.09v-70.13h44.23zm8.93-12.32h11.97v72.07h-11.97zm24.34 22.31h12.03v49.76h-12.03zm13.68-14.5q0 1.55-.63 2.91t-1.67 2.37q-1.05 1.02-2.45 1.63-1.41.6-3.01.6-1.55 0-2.94-.6-1.38-.61-2.4-1.63-1.01-1.01-1.62-2.37t-.61-2.91q0-1.6.61-3.01t1.62-2.42q1.02-1.02 2.4-1.63 1.39-.61 2.94-.61 1.6 0 3.01.61 1.4.61 2.45 1.63 1.04 1.01 1.67 2.42t.63 3.01m22.55 29.05v22.31q2.04 2.47 4.44 3.49t5.21 1.02q2.72 0 4.9-1.02t3.71-3.1q1.53-2.09 2.35-5.27.83-3.17.83-7.49 0-4.36-.7-7.39-.71-3.04-2.02-4.93t-3.17-2.76q-1.87-.88-4.25-.88-3.73 0-6.35 1.58t-4.95 4.44m-1.6-12.37.97 4.61q3.06-3.44 6.94-5.58 3.88-2.13 9.11-2.13 4.08 0 7.45 1.7 3.37 1.69 5.82 4.92 2.45 3.22 3.78 7.95 1.34 4.73 1.34 10.84 0 5.58-1.51 10.33-1.5 4.75-4.29 8.25-2.79 3.49-6.74 5.45-3.95 1.97-8.85 1.97-4.17 0-7.13-1.29-2.96-1.28-5.29-3.56v20.37h-11.98v-66.01h7.33q2.32 0 3.05 2.18"/></svg>