<svg xmlns="http://www.w3.org/2000/svg" width="600" height="400" viewBox="0 0 600 400"><rect width="100%" height="100%" fill="#2563eb"/><path fill="#ffffff" d="M158.965 207.65q.76 0 1.34.58l3.66 3.97q-3.04 3.76-7.47 5.76t-10.64 2q-5.56 0-9.99-1.9-4.43-1.89-7.57-5.27-3.14-3.39-4.82-8.08-1.67-4.69-1.67-10.24 0-5.63 1.8-10.3 1.79-4.68 5.05-8.06t7.78-5.26 10-1.88q5.46 0 9.68 1.79 4.23 1.8 7.2 4.7l-3.11 4.31q-.28.41-.71.72t-1.19.31q-.51 0-1.07-.29-.55-.29-1.2-.72-.66-.43-1.52-.95t-2-.95-2.64-.73q-1.5-.29-3.47-.29-3.35 0-6.12 1.19-2.78 1.19-4.78 3.45t-3.11 5.52q-1.1 3.26-1.1 7.44 0 4.21 1.19 7.48 1.19 3.28 3.23 5.52 2.03 2.25 4.79 3.44t5.93 1.19q1.9 0 3.44-.21 1.53-.21 2.83-.66 1.29-.45 2.45-1.15 1.15-.71 2.29-1.74.35-.32.72-.5.38-.19.8-.19m18.56-39.51v19.67q2.07-1.93 4.55-3.14 2.49-1.21 5.83-1.21 2.9 0 5.14.98 2.25.99 3.75 2.76 1.5 1.78 2.27 4.25.78 2.46.78 5.43v22.53h-8.52v-22.53q0-3.24-1.48-5.02-1.49-1.78-4.52-1.78-2.21 0-4.14 1.01-1.94 1-3.66 2.72v25.6h-8.52v-51.27zm49.09 42.13v-5.97q-3.69.17-6.21.64-2.52.46-4.03 1.19-1.52.72-2.18 1.69-.65.96-.65 2.1 0 2.24 1.33 3.21 1.32.97 3.46.97 2.62 0 4.54-.95 1.91-.95 3.74-2.88m-18.01-18.6-1.51-2.72q6.1-5.59 14.69-5.59 3.11 0 5.56 1.02 2.45 1.01 4.14 2.82 1.69 1.82 2.57 4.33.88 2.52.88 5.52v22.36h-3.87q-1.2 0-1.86-.36t-1.03-1.47l-.76-2.55q-1.35 1.21-2.63 2.12-1.27.91-2.65 1.54-1.38.62-2.95.94-1.57.33-3.47.33-2.24 0-4.14-.6-1.9-.61-3.28-1.81-1.38-1.21-2.14-3-.75-1.8-.75-4.18 0-1.34.44-2.67.45-1.33 1.47-2.54t2.64-2.28 3.98-1.86q2.37-.79 5.51-1.29t7.17-.61v-2.07q0-3.55-1.52-5.26-1.51-1.71-4.38-1.71-2.07 0-3.43.49-1.36.48-2.4 1.08-1.03.61-1.88 1.09-.84.48-1.88.48-.89 0-1.52-.46-.62-.47-1-1.09m69.94 15.98q.75 0 1.34.58l3.66 3.97q-3.04 3.76-7.47 5.76t-10.64 2q-5.56 0-9.99-1.9-4.44-1.89-7.58-5.27-3.13-3.39-4.81-8.08-1.67-4.69-1.67-10.24 0-5.63 1.79-10.3 1.8-4.68 5.06-8.06t7.78-5.26 10-1.88q5.45 0 9.68 1.79 4.23 1.8 7.19 4.7l-3.1 4.31q-.28.41-.71.72t-1.19.31q-.52 0-1.07-.29t-1.21-.72q-.65-.43-1.52-.95-.86-.52-2-.95-1.13-.43-2.64-.73-1.5-.29-3.46-.29-3.35 0-6.13 1.19-2.77 1.19-4.77 3.45-2.01 2.26-3.11 5.52t-1.1 7.44q0 4.21 1.19 7.48 1.19 3.28 3.22 5.52 2.04 2.25 4.8 3.44t5.93 1.19q1.9 0 3.43-.21 1.54-.21 2.83-.66 1.3-.45 2.45-1.15 1.16-.71 2.3-1.74.34-.32.72-.5.38-.19.8-.19m18.56-39.51v19.67q2.07-1.93 4.55-3.14t5.83-1.21q2.9 0 5.14.98 2.24.99 3.74 2.76 1.51 1.78 2.28 4.25.78 2.46.78 5.43v22.53h-8.52v-22.53q0-3.24-1.49-5.02-1.48-1.78-4.52-1.78-2.2 0-4.14 1.01-1.93 1-3.65 2.72v25.6h-8.53v-51.27zm30.67 15.87h8.55v35.4h-8.55zm9.73-10.31q0 1.1-.45 2.07-.45.96-1.19 1.69-.74.72-1.75 1.15-1 .43-2.13.43-1.11 0-2.09-.43t-1.71-1.15q-.72-.73-1.15-1.69-.44-.97-.44-2.07 0-1.14.44-2.14.43-1 1.15-1.73.73-.72 1.71-1.15t2.09-.43q1.13 0 2.13.43 1.01.43 1.75 1.15.74.73 1.19 1.73t.45 2.14m14.9 11.87.59 2.79q1.07-1.07 2.26-1.98 1.19-.92 2.51-1.56 1.33-.63 2.85-1 1.52-.36 3.31-.36 2.9 0 5.14.98 2.25.99 3.75 2.76 1.5 1.78 2.27 4.25.78 2.46.78 5.43v22.53h-8.52v-22.53q0-3.24-1.49-5.02-1.48-1.78-4.51-1.78-2.21 0-4.14 1.01-1.94 1-3.66 2.72v25.6h-8.52v-35.4h5.21q1.65 0 2.17 1.56m44.47 15.28q1.59 0 2.76-.43t1.95-1.19 1.17-1.83q.4-1.07.4-2.35 0-2.62-1.57-4.15-1.57-1.54-4.71-1.54t-4.71 1.54q-1.57 1.53-1.57 4.15 0 1.24.4 2.31.39 1.07 1.17 1.85t1.97 1.21 2.74.43m9.63 20.15q0-1.04-.63-1.69-.62-.66-1.69-1.02t-2.5-.54q-1.43-.17-3.03-.25-1.61-.09-3.31-.16-1.71-.07-3.33-.28-1.42.8-2.3 1.87t-.88 2.48q0 .93.47 1.74.46.81 1.48 1.4t2.64.91q1.62.33 3.97.33 2.38 0 4.1-.36 1.73-.36 2.85-1t1.64-1.52.52-1.91m-1.69-35.78h10.17v3.17q0 1.52-1.83 1.87l-3.17.58q.72 1.83.72 4.01 0 2.62-1.05 4.74t-2.91 3.61q-1.87 1.48-4.4 2.29-2.54.81-5.47.81-1.03 0-2-.1-.97-.11-1.9-.28-1.65 1-1.65 2.24 0 1.07.98 1.57t2.6.71q1.63.21 3.7.26t4.24.22q2.17.18 4.24.61t3.69 1.36q1.63.93 2.61 2.54.98 1.6.98 4.12 0 2.34-1.15 4.55-1.16 2.21-3.35 3.94-2.19 1.72-5.38 2.77t-7.26 1.05q-4.01 0-6.97-.77-2.97-.78-4.94-2.07-1.96-1.3-2.93-2.99t-.97-3.51q0-2.49 1.51-4.16 1.5-1.68 4.12-2.68-1.42-.72-2.24-1.93-.83-1.21-.83-3.17 0-.8.29-1.64.29-.85.86-1.67.57-.83 1.43-1.57.87-.75 2.04-1.33-2.69-1.45-4.23-3.87-1.53-2.41-1.53-5.65 0-2.63 1.05-4.75t2.93-3.62 4.45-2.29q2.57-.8 5.61-.8 2.28 0 4.28.47 2 .46 3.66 1.36m14.31 29.5q0-1.07.4-2.04.4-.96 1.09-1.65t1.65-1.11q.97-.41 2.07-.41 1.11 0 2.06.41.94.42 1.65 1.11t1.12 1.65q.42.97.42 2.04 0 1.1-.42 2.05-.41.95-1.12 1.64t-1.65 1.09q-.95.39-2.06.39-1.1 0-2.07-.39-.96-.4-1.65-1.09t-1.09-1.64-.4-2.05m17.91-30.71h8.55v36.61q0 2.31-.6 4.34-.6 2.04-1.93 3.58-1.33 1.53-3.49 2.41-2.15.88-5.26.88-1.2 0-2.24-.16-1.03-.15-2.14-.5l.31-4.58q.11-.69.55-.88.45-.19 1.73-.19t2.16-.26q.87-.26 1.39-.83t.74-1.5q.23-.93.23-2.31zm9.73-10.31q0 1.1-.45 2.07-.45.96-1.19 1.69-.74.72-1.76 1.15t-2.16.43q-1.1 0-2.07-.43-.96-.43-1.69-1.15-.72-.73-1.15-1.69-.43-.97-.43-2.07 0-1.14.43-2.14t1.15-1.73q.73-.72 1.69-1.15.97-.43 2.07-.43 1.14 0 2.16.43t1.76 1.15q.74.73 1.19 1.73t.45 2.14m31.05 14.14-1.93 3.07q-.35.55-.73.78-.38.22-.97.22-.62 0-1.32-.34-.71-.35-1.64-.78t-2.12-.77q-1.19-.35-2.82-.35-2.51 0-3.95 1.07-1.43 1.07-1.43 2.79 0 1.14.74 1.92.75.78 1.97 1.36 1.23.59 2.78 1.05 1.55.47 3.15 1.02 1.61.55 3.16 1.26t2.78 1.8q1.22 1.08 1.97 2.6.74 1.52.74 3.66 0 2.55-.92 4.71-.91 2.15-2.71 3.72-1.79 1.57-4.43 2.45t-6.09.88q-1.83 0-3.57-.33-1.74-.32-3.35-.91-1.6-.59-2.96-1.38-1.37-.79-2.4-1.73l1.97-3.24q.38-.58.89-.9.52-.31 1.31-.31.8 0 1.51.45.7.45 1.63.97.94.52 2.19.96 1.26.45 3.2.45 1.51 0 2.6-.36t1.79-.95q.71-.58 1.04-1.36t.33-1.6q0-1.25-.74-2.04-.75-.79-1.97-1.38-1.23-.59-2.8-1.05-1.57-.47-3.2-1.02-1.64-.55-3.21-1.29-1.57-.75-2.8-1.88-1.22-1.14-1.96-2.8-.75-1.65-.75-4 0-2.17.87-4.14.86-1.97 2.53-3.43 1.68-1.47 4.18-2.35t5.78-.88q3.65 0 6.65 1.21 3.01 1.21 5.01 3.17"/></svg>