<svg xmlns="http://www.w3.org/2000/svg" width="600" height="400" viewBox="0 0 600 400"><rect width="100%" height="100%" fill="#2563eb"/><path fill="#ffffff" d="M168.3 175.895h-31.14v20.76h26.29v10.42h-26.29v28.57h-13.09v-70.13h44.23zm18.23 29.15h22.6q0-2.33-.65-4.39t-1.96-3.62q-1.31-1.55-3.33-2.45-2.01-.89-4.68-.89-5.19 0-8.17 2.96-2.98 2.95-3.81 8.39m30.56 7.22h-30.8q.29 3.83 1.36 6.62t2.81 4.61q1.75 1.82 4.15 2.72 2.4.89 5.31.89t5.02-.67q2.11-.68 3.69-1.51 1.57-.82 2.76-1.5t2.3-.68q1.51 0 2.23 1.11l3.45 4.37q-1.99 2.33-4.46 3.9-2.48 1.58-5.17 2.53-2.69.94-5.48 1.33t-5.41.39q-5.19 0-9.65-1.72-4.46-1.73-7.76-5.1t-5.19-8.34-1.89-11.52q0-5.09 1.65-9.58 1.65-4.48 4.73-7.8 3.08-3.33 7.52-5.27 4.43-1.94 10.01-1.94 4.71 0 8.68 1.51 3.98 1.5 6.84 4.39 2.86 2.88 4.49 7.08 1.62 4.19 1.62 9.58 0 2.71-.58 3.66-.58.94-2.23.94m38.07 10.53v-8.39q-5.19.24-8.73.89-3.54.66-5.67 1.68-2.14 1.02-3.06 2.37-.92 1.36-.92 2.96 0 3.15 1.87 4.51 1.86 1.36 4.87 1.36 3.69 0 6.38-1.33 2.69-1.34 5.26-4.05m-25.32-26.14-2.13-3.84q8.58-7.85 20.66-7.85 4.37 0 7.81 1.43t5.82 3.98q2.38 2.54 3.61 6.08 1.24 3.54 1.24 7.76v31.43h-5.43q-1.7 0-2.62-.51t-1.46-2.06l-1.06-3.59q-1.89 1.7-3.69 2.98-1.79 1.29-3.73 2.16t-4.15 1.34q-2.21.46-4.87.46-3.16 0-5.82-.85-2.67-.85-4.61-2.55t-3.01-4.22-1.07-5.87q0-1.89.63-3.76.63-1.86 2.07-3.56 1.43-1.7 3.71-3.2t5.6-2.62 7.73-1.82q4.42-.7 10.09-.85v-2.91q0-4.99-2.13-7.39-2.14-2.41-6.16-2.41-2.91 0-4.83.68-1.91.68-3.37 1.53-1.45.85-2.64 1.53t-2.65.68q-1.26 0-2.13-.66-.87-.65-1.41-1.52m64.85 39.77q-6.5 0-9.97-3.67-3.47-3.66-3.47-10.11v-27.79h-5.09q-.97 0-1.65-.63t-.68-1.89v-4.75l8.01-1.31 2.52-13.58q.24-.97.92-1.51.68-.53 1.75-.53h6.2v15.67h13.29v8.53h-13.29v26.97q0 2.33 1.14 3.63 1.14 1.31 3.13 1.31 1.12 0 1.87-.26.75-.27 1.31-.56t.99-.56q.44-.26.88-.26.53 0 .87.26.34.27.73.8l3.59 5.82q-2.62 2.18-6.02 3.3-3.39 1.12-7.03 1.12m30.07-47.53.73 5.62q2.32-4.46 5.53-7.01 3.2-2.54 7.56-2.54 3.44 0 5.53 1.5l-.78 8.97q-.24.88-.7 1.24t-1.24.36q-.72 0-2.15-.24t-2.79-.24q-1.99 0-3.54.58-1.56.58-2.79 1.67-1.24 1.1-2.18 2.65-.95 1.55-1.77 3.54v30.65h-11.98v-49.76h7.03q1.84 0 2.57.65.73.66.97 2.36m71.73-13h-31.14v20.76h26.29v10.42h-26.29v28.57h-13.09v-70.13h44.23zm8.92-12.32h11.98v72.07h-11.98zm45.98 21.53q5.53 0 10.07 1.8 4.53 1.79 7.76 5.09 3.22 3.3 4.97 8.05 1.74 4.75 1.74 10.62 0 5.92-1.74 10.67-1.75 4.76-4.97 8.1-3.23 3.35-7.76 5.14-4.54 1.8-10.07 1.8-5.58 0-10.13-1.8-4.56-1.79-7.79-5.14-3.22-3.34-4.99-8.1-1.77-4.75-1.77-10.67 0-5.87 1.77-10.62t4.99-8.05q3.23-3.3 7.79-5.09 4.55-1.8 10.13-1.8m0 42.05q6.21 0 9.19-4.17 2.99-4.17 2.99-12.22t-2.99-12.27q-2.98-4.22-9.19-4.22-6.3 0-9.33 4.24-3.04 4.25-3.04 12.25t3.04 12.2q3.03 4.19 9.33 4.19"/></svg>