<svg xmlns="http://www.w3.org/2000/svg" width="600" height="400" viewBox="0 0 600 400"><rect width="100%" height="100%" fill="#d946ef"/><path fill="#ffffff" d="M164.595 177.635h-28.89v19.26h24.39v9.68h-24.39v26.5h-12.15v-65.07h41.04zm8.28-11.43h11.12v66.87h-11.12zm50.9 20.7h11.11v46.17h-6.79q-2.21 0-2.79-2.02l-.77-3.69q-2.83 2.88-6.25 4.65-3.42 1.78-8.06 1.78-3.78 0-6.68-1.28t-4.88-3.62-2.99-5.56q-1.02-3.22-1.02-7.09v-29.34h11.12v29.34q0 4.23 1.96 6.55 1.95 2.32 5.87 2.32 2.88 0 5.4-1.29 2.52-1.28 4.77-3.53zm22.45 0h11.16v46.17h-11.16zm12.69-13.46q0 1.45-.58 2.71-.59 1.26-1.55 2.2-.97.95-2.28 1.51-1.3.56-2.79.56-1.44 0-2.72-.56t-2.23-1.51q-.94-.94-1.5-2.2-.57-1.26-.57-2.71 0-1.48.57-2.78.56-1.31 1.5-2.25.95-.95 2.23-1.51t2.72-.56q1.49 0 2.79.56 1.31.56 2.28 1.51.96.94 1.55 2.25.58 1.3.58 2.78m38.79 45.95v-20.7q-1.89-2.29-4.11-3.24-2.23-.94-4.8-.94-2.52 0-4.54.94-2.03.95-3.47 2.86t-2.2 4.86q-.77 2.95-.77 6.95 0 4.05.66 6.86.65 2.81 1.86 4.59 1.22 1.78 2.97 2.57 1.76.79 3.92.79 3.46 0 5.89-1.44 2.43-1.45 4.59-4.1m0-53.19h11.12v66.87h-6.8q-2.2 0-2.79-2.02l-.94-4.46q-2.79 3.2-6.41 5.18-3.63 1.97-8.44 1.97-3.78 0-6.93-1.57-3.15-1.58-5.42-4.57-2.28-2.99-3.51-7.4-1.24-4.41-1.24-10.08 0-5.13 1.39-9.54 1.4-4.41 4.01-7.65t6.25-5.06q3.65-1.82 8.19-1.82 3.87 0 6.62 1.21 2.74 1.22 4.9 3.29zm68.04 1.8h10.67v65.07h-6.21q-1.44 0-2.41-.47t-1.87-1.6l-33.97-43.38q.27 2.97.27 5.49v39.96h-10.67v-65.07h6.35q.76 0 1.33.07.56.06.99.27.42.2.83.58.4.38.9 1.02l34.11 43.56q-.14-1.58-.23-3.11t-.09-2.84zm47.79 53.15v-7.79q-4.81.23-8.1.83-3.28.61-5.26 1.56-1.98.94-2.84 2.2-.85 1.26-.85 2.74 0 2.93 1.73 4.19t4.52 1.26q3.42 0 5.92-1.24 2.5-1.23 4.88-3.75m-23.49-24.26-1.98-3.55q7.97-7.29 19.17-7.29 4.05 0 7.25 1.32 3.19 1.33 5.4 3.69 2.2 2.37 3.35 5.65 1.15 3.29 1.15 7.2v29.16h-5.04q-1.58 0-2.43-.47-.86-.47-1.35-1.91l-.99-3.33q-1.76 1.57-3.42 2.76-1.67 1.2-3.47 2.01-1.8.8-3.84 1.23-2.05.43-4.53.43-2.92 0-5.4-.79-2.47-.78-4.27-2.36-1.8-1.57-2.79-3.91-.99-2.35-.99-5.45 0-1.75.58-3.49.59-1.73 1.92-3.31 1.32-1.57 3.44-2.96 2.11-1.4 5.2-2.43 3.08-1.04 7.17-1.69 4.1-.65 9.36-.79v-2.7q0-4.64-1.98-6.86-1.98-2.23-5.71-2.23-2.7 0-4.48.63t-3.13 1.42-2.45 1.42q-1.1.62-2.45.62-1.17 0-1.98-.6-.81-.61-1.31-1.42m77.63-9.99h8.77l-18.31 46.17h-10.08l-18.32-46.17h9.18q1.26 0 2.1.58.83.59 1.1 1.49l8.91 24.66q.72 2.16 1.26 4.23t.94 4.14q.45-2.07.99-4.14t1.31-4.23l9.09-24.66q.31-.9 1.12-1.49.81-.58 1.94-.58"/></svg>