<svg xmlns="http://www.w3.org/2000/svg" width="600" height="400" viewBox="0 0 600 400"><rect width="100%" height="100%" fill="#d946ef"/><path fill="#ffffff" d="M141.515 185.48h-15.41v10.27h13.01v5.16h-13.01v14.14h-6.48v-34.7h21.89zm4.42-6.09h5.92v35.66h-5.92zm27.14 11.04h5.93v24.62h-3.63q-1.17 0-1.48-1.08l-.41-1.97q-1.51 1.54-3.34 2.49-1.82.94-4.29.94-2.02 0-3.57-.68t-2.6-1.93q-1.06-1.25-1.6-2.97-.54-1.71-.54-3.78v-15.64h5.93v15.64q0 2.26 1.04 3.5 1.05 1.23 3.14 1.23 1.53 0 2.88-.68 1.34-.69 2.54-1.89zm11.98 0h5.95v24.62h-5.95zm6.76-7.18q0 .77-.31 1.44t-.83 1.18q-.51.5-1.21.8-.69.3-1.49.3-.76 0-1.45-.3-.68-.3-1.19-.8-.5-.51-.8-1.18t-.3-1.44q0-.79.3-1.49.3-.69.8-1.2.51-.5 1.19-.8.69-.3 1.45-.3.8 0 1.49.3.7.3 1.21.8.52.51.83 1.2.31.7.31 1.49m20.69 24.5v-11.04q-1.01-1.22-2.19-1.72-1.19-.51-2.56-.51-1.34 0-2.42.51-1.08.5-1.85 1.52t-1.18 2.59-.41 3.71q0 2.16.35 3.66t1 2.45 1.58 1.37q.94.42 2.09.42 1.85 0 3.14-.77 1.3-.77 2.45-2.19m0-28.36h5.93v35.66h-3.62q-1.18 0-1.49-1.08l-.51-2.38q-1.48 1.71-3.42 2.76-1.93 1.06-4.5 1.06-2.01 0-3.69-.84t-2.89-2.44q-1.22-1.59-1.88-3.94-.66-2.36-.66-5.38 0-2.74.75-5.09.74-2.35 2.13-4.08 1.4-1.73 3.34-2.7t4.37-.97q2.06 0 3.53.65 1.46.65 2.61 1.75zm36.29.96h5.69v34.7h-3.31q-.77 0-1.29-.25-.51-.25-.99-.85l-18.12-23.14q.14 1.58.14 2.93v21.31h-5.69v-34.7h3.39q.4 0 .7.03.3.04.53.15.23.1.45.31.21.2.48.54l18.19 23.23q-.07-.84-.12-1.66-.05-.81-.05-1.51zm25.49 28.34v-4.15q-2.57.12-4.32.44-1.75.33-2.81.83t-1.51 1.18q-.46.67-.46 1.46 0 1.56.93 2.23.92.67 2.41.67 1.82 0 3.15-.66 1.34-.66 2.61-2m-12.53-12.94-1.06-1.89q4.25-3.89 10.23-3.89 2.16 0 3.86.71 1.71.71 2.88 1.97 1.18 1.26 1.79 3.01t.61 3.84v15.55h-2.69q-.84 0-1.29-.25-.46-.25-.72-1.02l-.53-1.78q-.94.84-1.82 1.48-.89.63-1.85 1.07-.96.43-2.05.66-1.1.22-2.42.22-1.56 0-2.88-.42t-2.28-1.26-1.48-2.08q-.53-1.25-.53-2.91 0-.93.31-1.86.31-.92 1.02-1.76t1.84-1.59q1.12-.74 2.77-1.29 1.64-.55 3.83-.9 2.18-.35 4.99-.42v-1.44q0-2.47-1.06-3.66-1.05-1.19-3.05-1.19-1.44 0-2.38.34-.95.33-1.67.75t-1.31.76q-.59.33-1.31.33-.62 0-1.05-.32-.44-.32-.7-.76m41.4-5.32h4.68l-9.77 24.62h-5.37l-9.77-24.62h4.89q.68 0 1.12.31t.59.79l4.75 13.15q.38 1.15.67 2.26.29 1.1.51 2.21.24-1.11.52-2.21.29-1.11.7-2.26l4.85-13.15q.17-.48.6-.79t1.03-.31m23.45 9.57q0 4.95 1.2 9.72 1.2 4.78 3.43 8.98.24.48.28.85.03.37-.06.65-.1.27-.3.48-.21.2-.45.35l-2.64 1.6q-1.77-2.73-3.02-5.49t-2.04-5.57-1.17-5.69q-.37-2.88-.37-5.88t.37-5.89q.38-2.89 1.17-5.7t2.04-5.56q1.25-2.74 3.02-5.48l2.64 1.58q.24.15.45.35.2.21.3.48.09.28.06.65-.04.37-.28.88-2.23 4.17-3.43 8.96t-1.2 9.73m32.93-19.65h6.48v34.7h-6.48v-15.17h-16.3v15.17h-6.48v-34.7h6.48v14.92h16.3zm38.44 0v5.3h-10.46v29.4h-6.46v-29.4h-10.46v-5.3zm37.32 0h4.88v34.7h-5.69v-22.42q0-1.34.14-2.9l-10.49 19.7q-.74 1.42-2.28 1.42h-.91q-1.53 0-2.28-1.42l-10.61-19.77q.08.79.12 1.56.05.77.05 1.41v22.42h-5.69v-34.7h4.88q.43 0 .74.02t.56.12q.26.1.46.31.2.22.4.58l10.39 19.27q.41.77.75 1.58.35.82.69 1.68.33-.88.69-1.71t.77-1.6l10.25-19.22q.19-.36.41-.58.21-.21.47-.31.25-.1.56-.12t.74-.02m19.06 29.37h13.87v5.33h-20.33v-34.7h6.46zm20.88-9.72q0-4.94-1.19-9.73t-3.42-8.96q-.26-.51-.3-.88-.03-.37.06-.65.1-.27.3-.48.21-.2.47-.35l2.64-1.58q1.78 2.74 3.02 5.48 1.25 2.75 2.04 5.56.8 2.81 1.16 5.7t.36 5.89-.36 5.88-1.16 5.69q-.79 2.81-2.04 5.57-1.24 2.76-3.02 5.49l-2.64-1.6q-.26-.15-.47-.35-.2-.21-.3-.48-.09-.28-.06-.65.04-.37.3-.85 2.23-4.2 3.42-8.98 1.19-4.77 1.19-9.72"/></svg>