<svg xmlns="http://www.w3.org/2000/svg" width="600" height="400" viewBox="0 0 600 400"><rect width="100%" height="100%" fill="#8b5cf6"/><path fill="#ffffff" d="M142.325 184.875h-16.05v10.7h13.55v5.37h-13.55v14.73h-6.75v-36.15h22.8zm4.6-6.35h6.18v37.15h-6.18zm28.28 11.5h6.17v25.65h-3.77q-1.23 0-1.55-1.13l-.43-2.05q-1.57 1.6-3.47 2.59t-4.48.99q-2.1 0-3.71-.71-1.61-.72-2.71-2.02t-1.67-3.08q-.56-1.79-.56-3.94v-16.3h6.18v16.3q0 2.35 1.08 3.64 1.09 1.29 3.27 1.29 1.6 0 3-.72 1.4-.71 2.65-1.96zm12.47 0h6.2v25.65h-6.2zm7.05-7.48q0 .8-.32 1.5-.33.7-.87 1.23-.53.52-1.26.84-.72.31-1.55.31-.8 0-1.51-.31-.71-.32-1.24-.84-.52-.53-.84-1.23-.31-.7-.31-1.5 0-.82.31-1.55.32-.72.84-1.25.53-.52 1.24-.83.71-.32 1.51-.32.83 0 1.55.32.73.31 1.26.83.54.53.87 1.25.32.73.32 1.55m21.55 25.53v-11.5q-1.05-1.28-2.29-1.8-1.23-.53-2.66-.53-1.4 0-2.52.53-1.13.52-1.93 1.59-.8 1.06-1.22 2.7-.43 1.63-.43 3.86 0 2.25.36 3.81.37 1.56 1.04 2.55.68.99 1.65 1.43.98.43 2.18.43 1.92 0 3.27-.8t2.55-2.27m0-29.55h6.18v37.15h-3.78q-1.22 0-1.55-1.13l-.52-2.47q-1.55 1.77-3.57 2.87-2.01 1.11-4.68 1.11-2.1 0-3.85-.88t-3.02-2.54q-1.26-1.66-1.95-4.11-.68-2.45-.68-5.6 0-2.85.77-5.3.78-2.45 2.23-4.25t3.47-2.81q2.03-1.02 4.55-1.02 2.15 0 3.68.68 1.52.67 2.72 1.82zm37.8 1h5.93v36.15h-3.45q-.8 0-1.34-.26-.54-.27-1.04-.89l-18.87-24.1q.15 1.65.15 3.05v22.2h-5.93v-36.15h3.53q.42 0 .73.04.32.03.55.15.24.11.47.32.22.21.5.56l18.95 24.2q-.08-.87-.13-1.72t-.05-1.58zm26.55 29.52v-4.32q-2.67.12-4.5.46-1.82.34-2.92.86-1.1.53-1.58 1.23-.47.7-.47 1.52 0 1.63.96 2.33t2.51.7q1.9 0 3.29-.69t2.71-2.09m-13.05-13.47-1.1-1.98q4.43-4.05 10.65-4.05 2.25 0 4.03.74 1.77.74 3 2.05 1.22 1.31 1.86 3.14.64 1.82.64 4v16.2h-2.8q-.88 0-1.35-.26-.48-.27-.75-1.07l-.55-1.85q-.98.88-1.9 1.54-.93.66-1.93 1.11t-2.14.69q-1.13.24-2.51.24-1.62 0-3-.44-1.37-.44-2.37-1.31-1-.88-1.55-2.18t-.55-3.02q0-.98.32-1.94.33-.96 1.06-1.84.74-.87 1.92-1.65 1.17-.77 2.88-1.35 1.72-.57 3.99-.93 2.28-.37 5.2-.44v-1.5q0-2.58-1.1-3.81-1.1-1.24-3.17-1.24-1.5 0-2.49.35t-1.74.79l-1.36.78q-.61.35-1.36.35-.65 0-1.1-.33-.45-.34-.73-.79m43.13-5.55h4.87l-10.17 25.65h-5.6l-10.18-25.65h5.1q.7 0 1.16.32.47.33.62.83l4.95 13.7q.4 1.2.7 2.35t.52 2.3q.25-1.15.55-2.3t.73-2.35l5.05-13.7q.17-.5.62-.83.45-.32 1.08-.32m24.42 9.97q0 5.15 1.25 10.13 1.25 4.97 3.58 9.35.25.5.28.89.04.39-.06.67-.1.29-.31.5-.21.22-.46.37l-2.75 1.67q-1.85-2.85-3.15-5.72-1.3-2.88-2.13-5.81-.82-2.92-1.21-5.92t-.39-6.13q0-3.12.39-6.13.39-3.02 1.21-5.94.83-2.93 2.13-5.79t3.15-5.71l2.75 1.65q.25.15.46.36.21.22.31.5.1.29.06.68-.03.38-.28.91-2.33 4.35-3.58 9.34-1.25 4.98-1.25 10.13m17.3-3.27h4.2q1.9 0 3.31-.48 1.42-.47 2.33-1.31t1.36-1.99.45-2.52q0-2.75-1.81-4.23-1.81-1.47-5.54-1.47h-4.3zm12.45 5.6 9.05 13.35h-6.07q-1.73 0-2.5-1.35l-7.6-11.58q-.43-.65-.94-.92-.51-.28-1.51-.28h-2.88v14.13h-6.72v-36.15h11.02q3.68 0 6.31.76 2.64.76 4.33 2.14 1.69 1.37 2.49 3.29.8 1.91.8 4.21 0 1.82-.54 3.45-.54 1.62-1.55 2.95-1.01 1.32-2.5 2.32t-3.39 1.58q.65.37 1.2.89.55.51 1 1.21m16.88-2.43h11.65q0-1.2-.34-2.26t-1.01-1.86q-.68-.8-1.72-1.26-1.03-.47-2.41-.47-2.67 0-4.21 1.53t-1.96 4.32m15.75 3.73h-15.88q.15 1.97.7 3.41t1.45 2.38q.9.93 2.14 1.4 1.24.46 2.74.46t2.58-.35q1.09-.35 1.9-.78.82-.42 1.43-.77t1.19-.35q.77 0 1.15.57l1.77 2.25q-1.02 1.2-2.3 2.02-1.27.81-2.66 1.3-1.39.48-2.83.69-1.43.2-2.78.2-2.68 0-4.98-.89t-4-2.63-2.67-4.3q-.98-2.56-.98-5.94 0-2.62.85-4.93.85-2.32 2.44-4.03t3.87-2.71q2.29-1 5.17-1 2.42 0 4.47.77 2.05.78 3.53 2.27 1.47 1.48 2.31 3.65.84 2.16.84 4.93 0 1.4-.3 1.89t-1.15.49m19.62 5.42v-4.32q-2.67.12-4.5.46-1.82.34-2.92.86-1.1.53-1.58 1.23-.47.7-.47 1.52 0 1.63.96 2.33t2.51.7q1.9 0 3.29-.69t2.71-2.09m-13.05-13.47-1.1-1.98q4.43-4.05 10.65-4.05 2.25 0 4.03.74 1.77.74 3 2.05 1.22 1.31 1.86 3.14.64 1.82.64 4v16.2h-2.8q-.88 0-1.35-.26-.48-.27-.75-1.07l-.55-1.85q-.98.88-1.9 1.54-.93.66-1.93 1.11t-2.13.69q-1.14.24-2.52.24-1.62 0-3-.44-1.37-.44-2.37-1.31-1-.88-1.55-2.18t-.55-3.02q0-.98.32-1.94.33-.96 1.06-1.84.74-.87 1.92-1.65 1.17-.77 2.88-1.35 1.72-.57 3.99-.93 2.28-.37 5.2-.44v-1.5q0-2.58-1.1-3.81-1.1-1.24-3.17-1.24-1.5 0-2.49.35t-1.74.79l-1.36.78q-.61.35-1.36.35-.65 0-1.1-.33-.45-.34-.73-.79m44.88-2.38-1.63 2.25q-.27.35-.53.55-.27.2-.77.2-.47 0-.92-.28-.45-.29-1.08-.65-.62-.37-1.48-.65-.87-.29-2.14-.29-1.63 0-2.85.59-1.23.58-2.04 1.69-.81 1.09-1.21 2.66-.4 1.56-.4 3.53 0 2.05.44 3.66.43 1.59 1.26 2.68.82 1.09 2 1.65 1.17.56 2.65.56 1.47 0 2.38-.36.92-.36 1.54-.8.63-.44 1.09-.8t1.04-.36q.75 0 1.12.57l1.78 2.25q-1.03 1.2-2.23 2.02-1.2.81-2.49 1.3-1.28.48-2.64.69-1.37.2-2.72.2-2.37 0-4.47-.89t-3.68-2.59q-1.57-1.7-2.49-4.16-.91-2.47-.91-5.62 0-2.82.81-5.23.82-2.42 2.39-4.18 1.58-1.76 3.9-2.76 2.33-1 5.35-1 2.88 0 5.04.92 2.16.93 3.89 2.65m12.65 22.88q-3.35 0-5.14-1.89t-1.79-5.21v-14.33h-2.62q-.5 0-.85-.32-.35-.33-.35-.98v-2.45l4.12-.67 1.3-7q.13-.5.48-.78.35-.27.9-.27h3.2v8.07h6.85v4.4h-6.85v13.9q0 1.2.59 1.88.58.67 1.61.67.57 0 .96-.13.39-.14.68-.29.28-.15.51-.29.22-.14.45-.14.27 0 .45.14.17.14.37.41l1.85 3q-1.35 1.13-3.1 1.7-1.75.58-3.62.58m13.52-16.08q0-5.15-1.24-10.13-1.23-4.99-3.56-9.34-.27-.53-.31-.91-.04-.39.06-.68.1-.28.31-.5.22-.21.49-.36l2.75-1.65q1.85 2.85 3.15 5.71t2.13 5.79q.82 2.92 1.2 5.94.37 3.01.37 6.13 0 3.13-.37 6.13-.38 3-1.2 5.92-.83 2.93-2.13 5.81-1.3 2.87-3.15 5.72l-2.75-1.67q-.27-.15-.49-.37-.21-.21-.31-.5-.1-.28-.06-.67t.31-.89q2.33-4.38 3.56-9.35 1.24-4.98 1.24-10.13"/></svg>