<svg xmlns="http://www.w3.org/2000/svg" width="600" height="400" viewBox="0 0 600 400"><rect width="100%" height="100%" fill="#10b981"/><path fill="#ffffff" d="M175.815 172.57h7.82v55.67h-9.13v-35.96q0-2.16.23-4.66l-16.82 31.61q-1.19 2.27-3.66 2.27h-1.46q-2.47 0-3.66-2.27l-17.02-31.72q.12 1.27.2 2.5.07 1.23.07 2.27v35.96h-9.12v-55.67h7.81q.7 0 1.2.04t.9.19q.41.15.73.5.33.35.64.92l16.67 30.92q.65 1.23 1.21 2.54t1.1 2.7q.54-1.43 1.12-2.76.57-1.33 1.23-2.56l16.44-30.84q.31-.57.65-.92.35-.35.75-.5.41-.15.91-.19t1.19-.04m19.02 16.17h9.55v39.5h-9.55zm10.86-11.51q0 1.23-.5 2.31t-1.33 1.88q-.83.81-1.95 1.29-1.11.48-2.38.48-1.23 0-2.33-.48t-1.91-1.29q-.81-.8-1.29-1.88t-.48-2.31q0-1.27.48-2.39t1.29-1.92q.81-.81 1.91-1.29 1.1-.49 2.33-.49 1.27 0 2.38.49 1.12.48 1.95 1.29.83.8 1.33 1.92t.5 2.39m16.63 13.24.65 3.12q1.2-1.19 2.53-2.21 1.32-1.02 2.81-1.74 1.48-.71 3.17-1.11 1.7-.41 3.7-.41 3.23 0 5.73 1.1 2.51 1.1 4.18 3.08 1.68 1.98 2.54 4.74.87 2.75.87 6.06v25.14h-9.51V203.1q0-3.62-1.66-5.6-1.65-1.99-5.04-1.99-2.46 0-4.62 1.12t-4.08 3.04v28.57h-9.51v-39.5h5.81q1.85 0 2.43 1.73m48.36 38.39q-5.16 0-7.92-2.91-2.75-2.91-2.75-8.03v-22.06h-4.04q-.77 0-1.31-.5t-.54-1.5v-3.77l6.35-1.04 2-10.78q.2-.77.74-1.2.54-.42 1.38-.42h4.93v12.44h10.55v6.77h-10.55v21.41q0 1.85.91 2.89.9 1.03 2.48 1.03.88 0 1.48-.21t1.04-.44.79-.44.69-.21q.43 0 .7.21.26.21.57.63l2.85 4.62q-2.08 1.73-4.77 2.62-2.7.89-5.58.89m55.32-56.29v3.81q0 1.77-1 3.23l-28.57 40.35h28.92v8.28h-42.35v-4.08q0-.77.26-1.48.27-.72.7-1.33l28.64-40.54h-27.8v-8.24zm24.25 15.55q4.39 0 7.99 1.43 3.6 1.42 6.16 4.04t3.95 6.39 1.39 8.43q0 4.7-1.39 8.47-1.39 3.78-3.95 6.43-2.56 2.66-6.16 4.08-3.6 1.43-7.99 1.43-4.42 0-8.04-1.43-3.62-1.42-6.18-4.08-2.56-2.65-3.97-6.43-1.4-3.77-1.4-8.47 0-4.66 1.4-8.43 1.41-3.77 3.97-6.39t6.18-4.04q3.62-1.43 8.04-1.43m0 33.38q4.93 0 7.3-3.31t2.37-9.7-2.37-9.74-7.3-3.35q-5 0-7.41 3.37-2.4 3.37-2.4 9.72t2.4 9.68q2.41 3.33 7.41 3.33m44.24-33.38q4.39 0 7.99 1.43 3.6 1.42 6.16 4.04t3.95 6.39q1.38 3.77 1.38 8.43 0 4.7-1.38 8.47-1.39 3.78-3.95 6.43-2.56 2.66-6.16 4.08-3.6 1.43-7.99 1.43-4.43 0-8.05-1.43-3.61-1.42-6.17-4.08-2.56-2.65-3.97-6.43-1.41-3.77-1.41-8.47 0-4.66 1.41-8.43t3.97-6.39 6.17-4.04q3.62-1.43 8.05-1.43m0 33.38q4.93 0 7.3-3.31 2.36-3.31 2.36-9.7t-2.36-9.74q-2.37-3.35-7.3-3.35-5 0-7.41 3.37t-2.41 9.72 2.41 9.68 7.41 3.33m36.27 6.74h-9.51v-39.5h5.81q1.85 0 2.43 1.73l.61 2.93q1.04-1.16 2.18-2.12 1.13-.96 2.42-1.66 1.29-.69 2.78-1.09 1.48-.41 3.25-.41 3.73 0 6.14 2.02 2.41 2.03 3.6 5.37.92-1.96 2.31-3.36 1.39-1.41 3.04-2.29 1.66-.89 3.52-1.31 1.87-.43 3.76-.43 3.27 0 5.81 1t4.28 2.93q1.73 1.92 2.63 4.7.91 2.77.91 6.35v25.14h-9.51V203.1q0-3.77-1.66-5.68-1.65-1.91-4.85-1.91-1.46 0-2.71.51-1.25.5-2.2 1.44-.94.94-1.48 2.37-.54 1.42-.54 3.27v25.14h-9.55V203.1q0-3.97-1.59-5.78-1.6-1.81-4.68-1.81-2.08 0-3.87 1.03-1.79 1.02-3.33 2.79z"/></svg>