<svg xmlns="http://www.w3.org/2000/svg" width="600" height="400" viewBox="0 0 600 400"><rect width="100%" height="100%" fill="#06b6d4"/><path fill="#ffffff" d="m165.435 172.105-3.25 6.16q-.58 1.02-1.24 1.48-.65.46-1.62.46-1.02 0-2.21-.75t-2.84-1.67-3.85-1.67q-2.21-.76-5.22-.76-2.71 0-4.75.66-2.04.65-3.42 1.82-1.38 1.16-2.06 2.79-.68 1.62-.68 3.56 0 2.48 1.38 4.12 1.38 1.65 3.66 2.82 2.28 1.16 5.19 2.08t5.97 1.97q3.05 1.04 5.96 2.42t5.19 3.49 3.67 5.17q1.38 3.05 1.38 7.42 0 4.75-1.63 8.9-1.62 4.15-4.75 7.23t-7.64 4.85-10.33 1.77q-3.34 0-6.59-.66-3.25-.65-6.24-1.87-2.98-1.21-5.6-2.91-2.62-1.69-4.65-3.78l3.83-6.26q.48-.67 1.26-1.14.77-.46 1.65-.46 1.21 0 2.62 1 1.4.99 3.34 2.2 1.94 1.22 4.54 2.21 2.59 1 6.23 1 5.58 0 8.63-2.65 3.06-2.64 3.06-7.59 0-2.76-1.38-4.51-1.39-1.74-3.67-2.93t-5.19-2.02q-2.91-.82-5.91-1.79-3.01-.97-5.92-2.33t-5.19-3.54-3.66-5.45q-1.38-3.28-1.38-8.08 0-3.83 1.52-7.47 1.53-3.64 4.44-6.45t7.18-4.51 9.8-1.7q6.21 0 11.44 1.94 5.24 1.94 8.93 5.43m22.7-8.53v27.64q2.91-2.71 6.4-4.41t8.19-1.7q4.08 0 7.23 1.39 3.15 1.38 5.26 3.88 2.11 2.49 3.2 5.96t1.09 7.64v31.67h-11.97v-31.67q0-4.56-2.09-7.06t-6.35-2.5q-3.11 0-5.82 1.41-2.72 1.41-5.14 3.83v35.99h-11.98v-72.07zm64.74 21.53q5.53 0 10.07 1.8 4.53 1.79 7.76 5.09 3.22 3.3 4.97 8.05 1.74 4.75 1.74 10.62 0 5.92-1.74 10.67-1.75 4.76-4.97 8.1-3.23 3.35-7.76 5.14-4.54 1.8-10.07 1.8-5.57 0-10.13-1.8-4.56-1.79-7.79-5.14-3.22-3.34-4.99-8.1-1.77-4.75-1.77-10.67 0-5.87 1.77-10.62t4.99-8.05q3.23-3.3 7.79-5.09 4.56-1.8 10.13-1.8m0 42.05q6.21 0 9.19-4.17 2.99-4.17 2.99-12.22t-2.99-12.27q-2.98-4.22-9.19-4.22-6.3 0-9.33 4.24-3.03 4.25-3.03 12.25t3.03 12.2q3.03 4.19 9.33 4.19m95.64-41.27h9.12l-15.81 49.76h-9.6q-1.65 0-2.28-2.13l-8.92-28.76q-.44-1.46-.8-2.89-.37-1.43-.61-2.89-.29 1.46-.66 2.94-.36 1.48-.8 2.93l-9.07 28.67q-.58 2.13-2.57 2.13h-9.21l-15.76-49.76h9.55q1.31 0 2.23.63t1.21 1.6l7.13 26.58q.54 2.18.95 4.27.41 2.08.7 4.17.54-2.09 1.14-4.17.61-2.09 1.29-4.27l8.24-26.68q.29-.97 1.14-1.6t2.06-.63h5.29q1.26 0 2.16.63t1.19 1.6l8 26.68q.63 2.18 1.19 4.29t1.09 4.2q.63-4.13 1.79-8.49l7.33-26.58q.34-.97 1.21-1.6t2.08-.63m66.11-20.37v4.8q0 2.23-1.26 4.07l-35.99 50.83h36.43v10.43h-53.35v-5.14q0-.97.34-1.87.33-.9.87-1.67l36.08-51.07h-35.01v-10.38zm66.11 0-25.56 42.97v27.16h-13v-27.16l-25.56-42.97h11.49q1.7 0 2.7.82.99.83 1.67 2.09l12.8 23.42q1.12 2.09 1.97 3.93.85 1.85 1.52 3.69.63-1.84 1.46-3.69.82-1.84 1.89-3.93l12.76-23.42q.53-1.07 1.6-1.99 1.06-.92 2.71-.92z"/></svg>