<svg xmlns="http://www.w3.org/2000/svg" width="600" height="400" viewBox="0 0 600 400"><rect width="100%" height="100%" fill="#d946ef"/><path fill="#ffffff" d="M177.56 156.91v10.94h-21.58v60.64h-13.32v-60.64h-21.58v-10.94zm17.13 40.35h23.07q0-2.38-.67-4.48-.67-2.11-2.01-3.69-1.33-1.59-3.39-2.5-2.05-.92-4.77-.92-5.3 0-8.35 3.02-3.04 3.02-3.88 8.57m31.18 7.37h-31.43q.3 3.91 1.39 6.76 1.09 2.84 2.87 4.7t4.23 2.77q2.45.92 5.42.92t5.12-.7q2.16-.69 3.77-1.53 1.6-.84 2.82-1.53 1.21-.7 2.35-.7 1.53 0 2.28 1.14l3.51 4.46q-2.03 2.37-4.55 3.98-2.53 1.61-5.28 2.58-2.74.96-5.59 1.36-2.85.39-5.52.39-5.29 0-9.85-1.75-4.55-1.76-7.92-5.2-3.36-3.44-5.3-8.52-1.93-5.07-1.93-11.75 0-5.2 1.69-9.78 1.68-4.58 4.82-7.97 3.15-3.39 7.68-5.37t10.22-1.98q4.8 0 8.86 1.54 4.06 1.53 6.98 4.48 2.92 2.94 4.58 7.22 1.65 4.28 1.65 9.78 0 2.77-.59 3.74-.59.96-2.28.96m40-2.87 17.37 26.73h-11.78q-1.33 0-2.15-.69-.82-.7-1.36-1.59l-10.74-17.67q-.25.84-.57 1.59-.32.74-.72 1.38l-9.5 14.7q-.55.84-1.34 1.56t-1.98.72h-10.94l17.42-26.19-16.73-24.6h11.78q1.34 0 1.98.37.65.38 1.14 1.22l10.65 16.93q.54-1.69 1.53-3.32l8.56-13.37q1.09-1.83 2.82-1.83h11.24zm40.64 27.52q-6.63 0-10.17-3.74-3.54-3.73-3.54-10.32v-28.36h-5.2q-.99 0-1.68-.64-.7-.65-.7-1.93v-4.85l8.17-1.34 2.58-13.86q.24-.99.94-1.54.69-.54 1.78-.54h6.33v15.99h13.57v8.71h-13.57v27.52q0 2.38 1.17 3.71 1.16 1.34 3.19 1.34 1.14 0 1.91-.27.76-.27 1.33-.57t1.02-.57q.44-.27.89-.27.54 0 .89.27t.74.82l3.66 5.94q-2.67 2.22-6.13 3.36-3.47 1.14-7.18 1.14m66.97-61.77H341.7v21.18h26.83v10.64H341.7v29.16h-13.36v-71.58h45.14zm9.11-12.58h12.23v73.56h-12.23zm24.85 22.77h12.28v50.79h-12.28zm13.96-14.8q0 1.59-.64 2.97-.65 1.39-1.71 2.43-1.07 1.04-2.5 1.66-1.44.61-3.07.61-1.59 0-3-.61-1.41-.62-2.45-1.66t-1.65-2.43q-.62-1.38-.62-2.97 0-1.63.62-3.07.61-1.43 1.65-2.47t2.45-1.66 3-.62q1.63 0 3.07.62 1.43.62 2.5 1.66 1.06 1.04 1.71 2.47.64 1.44.64 3.07m23.02 29.65v22.77q2.08 2.53 4.53 3.57t5.32 1.04q2.77 0 5-1.04 2.22-1.04 3.78-3.17t2.4-5.37q.85-3.24.85-7.65 0-4.45-.72-7.55-.72-3.09-2.06-5.02-1.33-1.93-3.24-2.82-1.9-.9-4.33-.9-3.81 0-6.48 1.61-2.68 1.61-5.05 4.53m-1.64-12.62.99 4.7q3.12-3.51 7.08-5.69t9.31-2.18q4.16 0 7.6 1.73 3.44 1.74 5.94 5.03t3.86 8.12q1.36 4.82 1.36 11.06 0 5.69-1.54 10.54-1.53 4.85-4.38 8.42-2.84 3.56-6.88 5.57-4.03 2-9.03 2-4.26 0-7.28-1.31t-5.39-3.64v20.79h-12.23V177.7h7.47q2.38 0 3.12 2.23"/></svg>