<svg xmlns="http://www.w3.org/2000/svg" width="600" height="400" viewBox="0 0 600 400"><rect width="100%" height="100%" fill="#10b981"/><path fill="#ffffff" d="M164.185 172.275v8.62h-17.01v47.77h-10.49v-47.77h-17v-8.62zm15.52-1.56v22.23q2.34-2.19 5.15-3.55 2.81-1.37 6.59-1.37 3.28 0 5.81 1.11 2.54 1.12 4.23 3.12 1.7 2.01 2.58 4.8.87 2.79.87 6.14v25.47h-9.63v-25.47q0-3.66-1.68-5.67-1.67-2.01-5.1-2.01-2.5 0-4.68 1.13-2.19 1.13-4.14 3.08v28.94h-9.63v-57.95zm41.97 33.34h18.17q0-1.87-.53-3.53-.52-1.66-1.58-2.9-1.05-1.25-2.67-1.97t-3.76-.72q-4.17 0-6.57 2.37-2.4 2.38-3.06 6.75m24.57 5.81h-24.77q.23 3.08 1.09 5.33.86 2.24 2.26 3.7 1.41 1.46 3.34 2.18 1.93.73 4.27.73t4.04-.55q1.69-.55 2.96-1.21t2.22-1.21q.96-.54 1.86-.54 1.2 0 1.79.89l2.77 3.51q-1.6 1.88-3.59 3.14-1.99 1.27-4.15 2.03-2.17.76-4.41 1.07t-4.35.31q-4.17 0-7.76-1.38t-6.24-4.09q-2.65-2.72-4.17-6.71-1.52-4-1.52-9.26 0-4.1 1.32-7.71 1.33-3.6 3.8-6.28 2.48-2.67 6.05-4.23t8.05-1.56q3.79 0 6.98 1.21 3.2 1.21 5.5 3.53t3.61 5.69q1.31 3.38 1.31 7.71 0 2.18-.47 2.94t-1.79.76m19.11 18.8h-9.64v-40.01h5.89q1.87 0 2.46 1.75l.62 2.96q1.06-1.17 2.21-2.14t2.45-1.68q1.31-.7 2.81-1.11t3.3-.41q3.78 0 6.22 2.05 2.43 2.05 3.64 5.44.94-1.99 2.34-3.41 1.41-1.43 3.08-2.32 1.68-.9 3.57-1.33t3.81-.43q3.31 0 5.88 1.02 2.58 1.01 4.33 2.96 1.76 1.95 2.67 4.76.92 2.81.92 6.43v25.47h-9.63v-25.47q0-3.82-1.68-5.75t-4.91-1.93q-1.48 0-2.75.51-1.27.5-2.23 1.46-.95.95-1.5 2.4-.54 1.44-.54 3.31v25.47h-9.67v-25.47q0-4.01-1.62-5.85-1.62-1.83-4.74-1.83-2.11 0-3.92 1.03-1.81 1.04-3.37 2.83zm63.29-24.61h18.18q0-1.87-.53-3.53t-1.58-2.9q-1.05-1.25-2.67-1.97t-3.76-.72q-4.18 0-6.58 2.37-2.39 2.38-3.06 6.75m24.57 5.81h-24.76q.23 3.08 1.09 5.33.86 2.24 2.26 3.7 1.41 1.46 3.34 2.18 1.93.73 4.27.73t4.03-.55q1.7-.55 2.97-1.21 1.26-.66 2.22-1.21.96-.54 1.85-.54 1.21 0 1.8.89l2.77 3.51q-1.6 1.88-3.59 3.14-1.99 1.27-4.16 2.03-2.16.76-4.4 1.07-2.25.31-4.35.31-4.17 0-7.76-1.38t-6.24-4.09q-2.65-2.72-4.18-6.71-1.52-4-1.52-9.26 0-4.1 1.33-7.71 1.33-3.6 3.8-6.28 2.48-2.67 6.05-4.23t8.05-1.56q3.78 0 6.98 1.21t5.5 3.53 3.61 5.69q1.3 3.38 1.3 7.71 0 2.18-.46 2.94-.47.76-1.8.76m17.98-18.8.59 4.53q1.87-3.59 4.44-5.64 2.58-2.05 6.09-2.05 2.77 0 4.44 1.21l-.62 7.22q-.2.7-.57.99-.37.3-.99.3-.59 0-1.74-.2-1.15-.19-2.24-.19-1.6 0-2.85.46-1.24.47-2.24 1.35-.99.88-1.75 2.12-.76 1.25-1.43 2.85v24.65h-9.63v-40.01h5.65q1.49 0 2.07.52.59.53.78 1.89m20.91-2.41h9.67v40.01h-9.67zm10.99-11.66q0 1.24-.5 2.33-.51 1.1-1.35 1.92t-1.97 1.3q-1.13.49-2.42.49-1.24 0-2.36-.49-1.11-.48-1.93-1.3t-1.3-1.92q-.49-1.09-.49-2.33 0-1.29.49-2.42.48-1.13 1.3-1.95t1.93-1.31q1.12-.49 2.36-.49 1.29 0 2.42.49t1.97 1.31 1.35 1.95q.5 1.13.5 2.42m35.1 15.98-2.18 3.48q-.39.62-.82.87-.43.26-1.09.26-.7 0-1.5-.39t-1.86-.88q-1.05-.49-2.39-.88-1.35-.39-3.18-.39-2.85 0-4.47 1.21t-1.62 3.16q0 1.29.84 2.16.84.88 2.22 1.54 1.39.67 3.14 1.19 1.76.53 3.57 1.16 1.82.62 3.57 1.42 1.76.8 3.14 2.03 1.39 1.23 2.22 2.94.84 1.72.84 4.13 0 2.89-1.03 5.33t-3.06 4.21q-2.03 1.78-5.01 2.77-2.99.99-6.89.99-2.06 0-4.03-.37t-3.79-1.03q-1.81-.66-3.35-1.56t-2.71-1.95l2.22-3.67q.43-.66 1.02-1.01.58-.35 1.48-.35.89 0 1.69.51.8.5 1.86 1.09 1.05.58 2.47 1.09 1.43.51 3.61.51 1.72 0 2.94-.41 1.23-.41 2.03-1.08.8-.66 1.17-1.54.37-.87.37-1.81 0-1.4-.84-2.3-.83-.9-2.22-1.56-1.38-.66-3.16-1.19-1.77-.53-3.62-1.15-1.86-.62-3.63-1.46-1.78-.84-3.16-2.13t-2.22-3.16-.84-4.52q0-2.46.97-4.68.98-2.22 2.87-3.88t4.72-2.65q2.83-1 6.53-1 4.14 0 7.53 1.37 3.39 1.36 5.65 3.58m15.29 11.08h18.18q0-1.87-.53-3.53t-1.58-2.9q-1.05-1.25-2.67-1.97t-3.77-.72q-4.17 0-6.57 2.37-2.4 2.38-3.06 6.75m24.57 5.81h-24.76q.23 3.08 1.09 5.33.86 2.24 2.26 3.7t3.33 2.18q1.94.73 4.28.73 2.33 0 4.03-.55t2.97-1.21q1.26-.66 2.22-1.21.95-.54 1.85-.54 1.21 0 1.8.89l2.76 3.51q-1.59 1.88-3.58 3.14-1.99 1.27-4.16 2.03-2.16.76-4.4 1.07-2.25.31-4.35.31-4.18 0-7.76-1.38-3.59-1.38-6.24-4.09-2.66-2.72-4.18-6.71-1.52-4-1.52-9.26 0-4.1 1.33-7.71 1.32-3.6 3.8-6.28 2.48-2.67 6.05-4.23 3.56-1.56 8.05-1.56 3.78 0 6.98 1.21t5.5 3.53 3.61 5.69q1.3 3.38 1.3 7.71 0 2.18-.46 2.94-.47.76-1.8.76"/></svg>