<svg xmlns="http://www.w3.org/2000/svg" width="600" height="400" viewBox="0 0 600 400"><rect width="100%" height="100%" fill="#8b5cf6"/><path fill="#ffffff" d="M154.145 177.955v6.85h-13.51v37.98h-8.34v-37.98h-13.52v-6.85zm24.43 13.02h7.66v31.81h-4.68q-1.52 0-1.93-1.4l-.52-2.54q-1.96 1.99-4.31 3.21-2.36 1.23-5.55 1.23-2.6 0-4.6-.89-2-.88-3.37-2.49-1.36-1.62-2.06-3.83-.7-2.22-.7-4.88v-20.22h7.66v20.22q0 2.91 1.35 4.51 1.35 1.59 4.04 1.59 1.99 0 3.72-.88 1.74-.88 3.29-2.43zm21.98 1.93.46 3.59q1.49-2.85 3.54-4.48 2.04-1.63 4.83-1.63 2.2 0 3.54.97l-.5 5.73q-.15.56-.45.79-.29.23-.79.23-.46 0-1.38-.15-.91-.16-1.78-.16-1.27 0-2.26.38-.99.37-1.79 1.07-.79.69-1.39 1.68-.6 1-1.13 2.27v19.59h-7.66v-31.81h4.5q1.17 0 1.64.42.46.42.62 1.51m23-.53.53 2.51q.96-.96 2.03-1.78t2.26-1.4q1.2-.57 2.56-.9 1.36-.32 2.98-.32 2.6 0 4.61.88 2.02.88 3.37 2.48t2.04 3.81q.7 2.22.7 4.89v20.24h-7.66v-20.24q0-2.92-1.33-4.51-1.33-1.6-4.06-1.6-1.98 0-3.72.9t-3.29 2.45v23h-7.65v-31.81h4.68q1.49 0 1.95 1.4m60.85-14.42v6.85h-13.51v37.98h-8.34v-37.98h-13.52v-6.85zm21.49 36.62v-5.37q-3.32.16-5.58.58-2.27.41-3.63 1.06-1.36.66-1.95 1.52-.59.87-.59 1.89 0 2.02 1.19 2.89 1.2.87 3.12.87 2.35 0 4.07-.86 1.72-.85 3.37-2.58m-16.18-16.71-1.37-2.45q5.49-5.03 13.21-5.03 2.79 0 4.99.92 2.2.91 3.72 2.54t2.31 3.89.79 4.96v20.09h-3.47q-1.09 0-1.68-.33-.59-.32-.93-1.31l-.68-2.3q-1.21 1.09-2.36 1.91-1.14.82-2.38 1.38t-2.65.85q-1.41.3-3.12.3-2.01 0-3.72-.55-1.7-.54-2.94-1.62-1.24-1.09-1.93-2.7-.68-1.61-.68-3.75 0-1.21.41-2.4.4-1.2 1.31-2.28.92-1.09 2.37-2.05 1.46-.96 3.58-1.67 2.13-.72 4.95-1.17t6.45-.54v-1.86q0-3.19-1.37-4.73-1.36-1.53-3.93-1.53-1.86 0-3.09.43-1.22.44-2.15.98l-1.69.98q-.76.43-1.69.43-.81 0-1.37-.42-.55-.42-.89-.97m38.5 2.41v14.26q1.3 1.58 2.83 2.24 1.54.65 3.24.65 1.77 0 3.18-.64 1.41-.63 2.4-1.98 1-1.35 1.52-3.44.53-2.1.53-5.01 0-5.24-1.74-7.58-1.73-2.34-4.99-2.34-2.2 0-3.84 1.01-1.64 1-3.13 2.83m0-23.56v18.17q1.92-2.01 4.26-3.21 2.34-1.19 5.35-1.19 2.76 0 4.97 1.08 2.22 1.09 3.78 3.12 1.57 2.03 2.41 4.91.83 2.89.83 6.48 0 3.88-.96 7.04t-2.74 5.41q-1.78 2.24-4.29 3.48t-5.58 1.24q-1.49 0-2.7-.29t-2.23-.82q-1.03-.53-1.88-1.29t-1.63-1.69l-.34 2.14q-.18.81-.63 1.15t-1.23.34h-5.05v-46.07zm27.62 0h7.66v46.07h-7.66zm21.36 26.51h14.44q0-1.49-.42-2.81-.41-1.31-1.25-2.31-.84-.99-2.12-1.56-1.29-.58-3-.58-3.31 0-5.22 1.9-1.91 1.89-2.43 5.36m19.53 4.62h-19.69q.19 2.45.87 4.23t1.8 2.94q1.11 1.17 2.65 1.74 1.53.57 3.39.57t3.21-.43 2.36-.96 1.76-.96q.76-.44 1.48-.44.96 0 1.42.72l2.2 2.79q-1.27 1.49-2.85 2.49-1.58 1.01-3.3 1.61-1.72.61-3.5.86-1.78.24-3.46.24-3.32 0-6.17-1.1t-4.96-3.25-3.31-5.33q-1.21-3.18-1.21-7.37 0-3.25 1.05-6.12 1.05-2.86 3.02-4.99 1.97-2.12 4.81-3.36 2.83-1.24 6.4-1.24 3.01 0 5.55.96t4.37 2.8q1.83 1.85 2.87 4.53t1.04 6.12q0 1.74-.38 2.34-.37.61-1.42.61m11.13-16.68-4.03-.71q.46-3.23 1.79-5.66 1.34-2.43 3.34-4.06t4.58-2.45q2.59-.82 5.57-.82 3.1 0 5.59.88 2.5.89 4.27 2.45 1.76 1.57 2.71 3.67.95 2.11.95 4.56 0 2.14-.49 3.77-.48 1.63-1.37 2.83-.9 1.21-2.24 2.05-1.33.84-3 1.4 4.03 1.27 6.01 3.87t1.98 6.54q0 3.35-1.24 5.92-1.24 2.58-3.34 4.33-2.11 1.75-4.89 2.65-2.77.9-5.87.9-3.38 0-5.89-.78-2.51-.77-4.37-2.29t-3.16-3.72q-1.31-2.2-2.24-5.09l3.38-1.39q1.34-.56 2.5-.3 1.16.27 1.69 1.26.56 1.08 1.22 2.14.67 1.05 1.6 1.87.93.83 2.18 1.34 1.26.51 3 .51 1.95 0 3.41-.64 1.45-.63 2.43-1.66.98-1.02 1.46-2.27.48-1.26.48-2.53 0-1.61-.34-2.93t-1.43-2.25q-1.08-.93-3.12-1.45-2.03-.53-5.44-.53v-5.46q2.83-.03 4.69-.53 1.86-.49 2.96-1.37 1.1-.89 1.53-2.13t.43-2.73q0-3.16-1.76-4.8-1.77-1.64-4.71-1.64-1.37 0-2.52.38-1.14.39-2.06 1.09-.91.7-1.53 1.63t-.93 2.04q-.53 1.43-1.38 1.89-.85.47-2.4.22m73.37 9.21q0 4.93-1.64 9.05t-4.62 7.1q-2.97 2.97-7.16 4.62-4.18 1.64-9.3 1.64h-17.08v-44.83h17.08q5.12 0 9.3 1.66 4.19 1.66 7.16 4.62 2.98 2.96 4.62 7.09 1.64 4.12 1.64 9.05m-8.55 0q0-3.69-.98-6.62t-2.82-4.96-4.46-3.12q-2.62-1.08-5.91-1.08h-8.71v31.56h8.71q3.29 0 5.91-1.09 2.62-1.08 4.46-3.11 1.84-2.04 2.82-4.96.98-2.93.98-6.62"/></svg>